<?xml version="1.0" encoding="utf-8"?>

<!-- Uploaded to: SVG Repo, www.svgrepo.com, Generator: SVG Repo Mixer Tools -->
<svg version="1.1" id="Icons" xmlns="http://www.w3.org/2000/svg" xmlns:xlink="http://www.w3.org/1999/xlink" 
	 viewBox="0 0 32 32" xml:space="preserve">
<style type="text/css">
	.st0{fill:none;stroke:#000000;stroke-width:2;stroke-linecap:round;stroke-linejoin:round;stroke-miterlimit:10;}
</style>
<path d="M23,28c-1.1,0-2.1-0.7-2.5-1.8c0-0.1,0-0.2-0.1-0.2h-8.9c0,0.1,0,0.2-0.1,0.2C11.1,27.3,10.1,28,9,28c-0.6,0-1,0.4-1,1
	s0.4,1,1,1h14c0.6,0,1-0.4,1-1S23.6,28,23,28z"/>
<g>
	<circle cx="16" cy="13" r="3"/>
	<path d="M27,3H5C3.3,3,2,4.3,2,6v15c0,1.7,1.3,3,3,3h6.9h8.1H27c1.7,0,3-1.3,3-3V6C30,4.3,28.7,3,27,3z M23.7,15.1
		c-0.1,0.5-0.7,0.8-1.2,0.7c-0.7-0.2-1.2,0-1.3,0.2c-0.1,0.2,0,0.7,0.5,1.3c0.4,0.4,0.4,1,0,1.4c-1,1-2.2,1.7-3.6,2.1
		c-0.5,0.1-1.1-0.2-1.2-0.7c-0.2-0.7-0.6-1-0.9-1s-0.6,0.4-0.9,1c-0.1,0.4-0.5,0.7-1,0.7c-0.1,0-0.2,0-0.3,0
		c-1.4-0.4-2.6-1.1-3.6-2.1c-0.4-0.4-0.4-1,0-1.4c0.5-0.5,0.6-1,0.5-1.3c-0.1-0.2-0.6-0.4-1.3-0.2c-0.5,0.1-1.1-0.2-1.2-0.7
		C8.1,14.4,8,13.7,8,13s0.1-1.4,0.3-2.1c0.1-0.5,0.7-0.8,1.2-0.7c0.7,0.2,1.2,0,1.3-0.2c0.1-0.2,0-0.7-0.5-1.3c-0.4-0.4-0.4-1,0-1.4
		c1-1,2.2-1.7,3.6-2.1C14.4,5.1,15,5.4,15.1,6c0.2,0.7,0.6,1,0.9,1s0.6-0.4,0.9-1c0.2-0.5,0.7-0.8,1.2-0.7c1.4,0.4,2.6,1.1,3.6,2.1
		c0.4,0.4,0.4,1,0,1.4c-0.5,0.5-0.6,1-0.5,1.3c0.1,0.2,0.6,0.4,1.3,0.2c0.5-0.1,1.1,0.2,1.2,0.7c0.2,0.7,0.3,1.4,0.3,2.1
		S23.9,14.4,23.7,15.1z"/>
</g>
</svg>