<?xml version="1.0" encoding="iso-8859-1"?>
<!-- Uploaded to: SVG Repo, www.svgrepo.com, Generator: SVG Repo Mixer Tools -->
<svg fill="#000000" height="800px" width="800px" version="1.1" id="Layer_1" xmlns="http://www.w3.org/2000/svg" xmlns:xlink="http://www.w3.org/1999/xlink" 
	 viewBox="0 0 501.333 501.333" xml:space="preserve">
<g>
	<g>
		<path d="M203.733,275.2h-182.4C9.6,275.2,0,284.8,0,296.533V480c0,11.733,9.6,21.333,21.333,21.333h182.4
			c11.733,0,21.333-9.6,21.333-20.267V296.533C225.067,284.8,215.467,275.2,203.733,275.2z M182.4,459.733H41.6V316.8h49.067v40.533
			c0,11.733,9.6,21.333,21.333,21.333s21.333-9.6,21.333-21.333V316.8H182.4V459.733z"/>
	</g>
</g>
<g>
	<g>
		<path d="M480,275.2H297.6c-11.733,0-21.333,9.6-21.333,21.333V480c0,11.733,9.6,21.333,21.333,21.333H480
			c11.733,0,21.333-9.6,21.333-20.267V296.533C501.333,284.8,491.733,275.2,480,275.2z M459.733,459.733h-140.8V316.8H368v40.533
			c0,11.733,9.6,21.333,21.333,21.333s20.267-9.6,21.333-21.333V316.8h49.067V459.733z"/>
	</g>
</g>
<g>
	<g>
		<path d="M341.333,0h-182.4C147.2,0,137.6,9.6,137.6,21.334V204.8c0,11.733,9.6,21.333,21.333,21.333H342.4
			c11.733,0,20.267-9.6,20.267-20.267V21.334C362.667,9.6,353.067,0,341.333,0z M321.067,184.533h-140.8V41.6h49.067v45.867
			c0,11.733,9.6,21.333,21.333,21.333C262.4,108.8,272,99.2,272,88.533V41.6h49.067V184.533z"/>
	</g>
</g>
</svg>