<?xml version="1.0" standalone="yes"?>
<svg xmlns="http://www.w3.org/2000/svg" width="1024" height="768">
<path style="fill:#ffffff; stroke:none;" d="M0 0L0 280C10.2364 273.229 19.2236 264.34 29 256.884C45.5919 244.23 63.0101 232.578 81 222.011C92.8033 215.078 104.967 208.816 117 202.309C121.835 199.694 128.626 197.781 132.351 193.61C135.963 189.565 137.674 182.908 139.861 178C144.062 168.575 148.525 159.172 153.258 150C172.776 112.186 200.563 74.7231 245 67.2855C269.082 63.2548 293.077 65.5731 317 69.5864C336.097 72.7902 355.733 77.1973 374 83.6983C393.515 90.6436 412.5 100.503 431 109.753C448.259 118.383 465.535 126.963 482 137.061C493.304 143.994 504.518 151.288 515 159.425C521.225 164.257 527.096 171.106 534 174.86C538.98 177.569 545.563 178.433 551 180C562.352 183.271 573.719 186.52 585 190.026C630.355 204.117 677.392 216.502 719 239.861C751.416 258.06 780.853 281.119 811 302.71C819.394 308.721 827.593 315.005 836 321C839.946 323.814 844.122 327.736 849 328.722C854.591 329.852 860.429 328.497 866 328.089C878.035 327.207 890.026 325.842 902 324.282C943.062 318.932 983.376 310.878 1024 303L1024 0L0 0z"/>
<path style="fill:#31b7bc; stroke:none;" d="M133 194C139.151 191.905 147.803 188.975 152.61 184.502C157.44 180.006 159.218 171.718 162.309 166C169.355 152.963 176.552 139.743 185.665 128C193.786 117.535 203.268 107.719 215 101.312C227.913 94.2617 241.7 93.1967 256 91.8303C264.641 91.0046 273.29 89.6546 282 90.0394C307.204 91.1528 333.374 104.063 356 114.139C382.908 126.122 408.759 140.456 434 155.6C465.515 174.509 495.607 195.167 520.914 222.015C536.573 238.626 549.438 257.699 564.286 275C582.301 295.992 602.686 314.8 626 329.782C709.747 383.6 820.791 397.918 917 375.116C938.601 369.996 959.531 363.165 980 354.576C994.425 348.522 1008.99 340.324 1024 336L1024 303C1004.23 305.554 984.638 311.034 965 314.576C910.691 324.371 853.331 333.7 798 329.91C769.279 327.944 742.906 319.268 716 309.692C704.058 305.442 691.749 302.345 680 297.548C650.882 285.659 627.371 265.776 604 245.285C594.021 236.535 582.719 228.43 573.579 218.829C558.664 203.162 545.906 185.9 530 171.089C504.593 147.432 472.838 130.172 442 114.753C420.169 103.838 398.038 91.8975 375 83.6983C355.427 76.7323 334.463 72.2842 314 68.9197C282.433 63.7296 247.853 61.6296 218 75.3087C196.884 84.9841 183.244 102.134 170.667 121C160.983 135.526 152.256 150.03 145.139 166C141.021 175.239 135.682 184.196 133 194z"/>
<path style="fill:#ffffff; stroke:none;" d="M153 185C185.314 171.743 217.273 160.387 252 155.272C280.048 151.14 308.691 151 337 151C358.664 151 380.409 150.611 402 152.089C412.333 152.797 422.654 154.556 433 155C428.29 150.907 422.398 148.102 417 145C405.824 138.577 394.527 132.517 383 126.753C352.869 111.688 319.099 93.5801 285 90.1705C275.017 89.1724 264.906 90.8837 255 91.8303C240.307 93.2343 226.15 94.366 213 101.873C183.85 118.513 165.468 155.053 153 185z"/>
<path style="fill:#23accc; stroke:none;" d="M0 449C4.64454 444.056 7.82787 437.569 11.7199 432C19.6194 420.696 27.9138 409.703 36.6111 399C60.849 369.174 88.2753 342.469 116 315.961C132.723 299.971 149.814 281.543 169 268.519C204.607 244.348 249.399 233.611 291 224.997C321.102 218.764 351.412 213.89 382 210.831C399.431 209.088 417.474 206.792 435 207.259C453.426 207.751 471.717 209.819 490 212.282C498.32 213.403 506.595 215.827 515 216C501.786 197.242 478.805 183.87 460 171.333C452.126 166.084 443.124 158.43 434 155.648C428.915 154.098 423.24 154.337 418 153.83C404.022 152.478 389.925 153.156 376 151.83C353.84 149.721 331.172 150.99 309 151.961C296.304 152.517 283.668 151.964 271 153.17C247.244 155.431 223.865 159.833 201 166.72C167.124 176.923 135.176 192.759 104 209.219C76.7561 223.603 50.2541 239.941 26 259C20.2626 263.509 14.5966 268.07 9 272.754C6.3031 275.011 2.82296 277.324 1.02778 280.425C-1.07108 284.051 0 289.962 0 294L0 327L0 449z"/>
<path style="fill:#23accc; stroke:none;" d="M535 176C540.62 183.978 548.485 190.572 554.87 198C565.659 210.554 576.772 227.073 592 234.701C600.638 239.028 611.723 240.708 621 243.424C641.995 249.572 664.266 255.711 684 265.258C709.826 277.753 733.691 294.284 758 309.424C768.015 315.661 778.812 324.757 790 328.59C796.597 330.85 804.142 330 811 330L848 330C840.882 322.762 831.254 317.202 823 311.29C810.588 302.401 798.416 293.178 786 284.29C756.927 263.478 727.64 242.294 695 227.309C664.271 213.201 630.335 204.021 598 194.28C577.426 188.082 556.313 179.136 535 176z"/>
<path style="fill:#ffffff; stroke:none;" d="M0 768L1024 768L1024 409C1011.38 408.965 998.52 406.653 986 405.155C969.824 403.219 953.698 401.802 938 397.291C927.919 394.394 917.829 391.251 908 387.576C902.048 385.35 895.338 381.496 889 380.814C879.464 379.788 868.532 382.923 859 383.83C844.222 385.237 828.86 385.611 814 384.961C755.347 382.392 696.864 368.811 645 340.691C609.903 321.662 581.281 294.621 556.084 264C546.841 252.768 538.172 241.075 528.728 230C524.235 224.731 520.033 218.288 513 216.444C465.513 203.992 414.105 206.789 366 212.715C321.533 218.194 276.76 226.007 234 239.656C215.573 245.537 196.874 251.77 180 261.427C162.238 271.594 148.071 286.218 133 299.83C122.146 309.634 111.836 320.026 101 329.83C92.0077 337.967 80.8183 346.519 74.4792 357C67.0397 369.3 62.7352 384.662 57.3997 398C45.7557 427.109 34.818 456.469 24.3079 486C18.7455 501.629 13.2474 517.258 8 533C5.22953 541.311 1.24289 550.272 0.184414 559C-0.763419 566.816 0 575.131 0 583L0 629L0 768z"/>
<path style="fill:#ffffff; stroke:none;" d="M592 235C598.13 242.086 605.971 247.967 613 254.155C632.701 271.499 653.777 286.732 678 297.127C690.319 302.414 703.429 305.46 716 310.053C739.343 318.583 763.872 327.921 789 329C777.693 319.174 762.618 312.42 750 304.308C728.013 290.173 705.821 275.216 682 264.309C653.594 251.302 621.977 243.507 592 235z"/>
<path style="fill:#ffffff; stroke:none;" d="M921 374C927.422 379.322 936.389 382.023 944 385.28C969.053 395.999 996.804 401.439 1024 402L1024 336C1018.4 336.998 1013.21 339.914 1008 342.15L981 353.719C961.433 362.138 941.459 368.237 921 374z"/>
<path style="fill:#31b7bc; stroke:none;" d="M72 359C68.5023 362.498 64.4769 365.879 61.6991 370C57.9883 375.505 56.2617 382.819 53.9498 389C49.7122 400.329 45.3767 411.607 41.3079 423C32.4772 447.727 23.1385 472.273 14.3079 497C9.79121 509.647 2.9982 522.821 0.378858 536C-0.944327 542.657 0 550.227 0 557C2.79243 552.557 3.68434 546.965 5.33333 542C8.7651 531.667 12.0413 521.258 15.6921 511C27.6025 477.535 39.4029 443.992 52.6003 411C57.4065 398.985 62.0787 386.906 67.1497 375C69.1093 370.399 73.0374 364.012 72 359z"/>
<path style="fill:#ffffff; stroke:none;" d="M59 373C43.0524 389.081 28.6819 407.451 15.7199 426C10.6904 433.197 3.20745 441.507 0.64892 450C-1.84727 458.286 0 469.386 0 478L0 535C2.97253 531.026 4.24424 525.655 5.94676 521C9.11107 512.348 12.2968 503.694 15.3434 495C24.6033 468.576 34.2753 442.185 44.1921 416L55.4236 386C56.9205 382.031 59.7417 377.23 59 373z"/>
<path style="fill:#1ea8d1; stroke:none;" d="M890 380C899.213 386.118 911.574 388.858 922 392.333C943.473 399.491 964.621 402.477 987 405.155C999.208 406.616 1011.71 408.746 1024 409L1024 402C1001.25 401.937 977.399 397.695 956 389.946C947.876 387.004 939.893 383.654 932 380.139C928.182 378.438 924.192 375.53 920 374.938C916.739 374.477 913.174 375.761 910 376.4C903.362 377.735 896.719 379.146 890 380z"/>
</svg>
